<?xml version="1.0" encoding="utf-8"?>
<!-- Generator: Adobe Illustrator 19.2.1, SVG Export Plug-In . SVG Version: 6.00 Build 0)  -->
<!DOCTYPE svg PUBLIC "-//W3C//DTD SVG 1.1//EN" "http://www.w3.org/Graphics/SVG/1.1/DTD/svg11.dtd">
<svg version="1.1" id="Calque_1" xmlns="http://www.w3.org/2000/svg" xmlns:xlink="http://www.w3.org/1999/xlink" x="0px" y="0px"
	 viewBox="0 0 244 49" style="enable-background:new 0 0 244 49;" xml:space="preserve">
<style type="text/css">
	.st0{fill:#359E34;}
</style>
<polygon points="65.8,22.3 65.8,29.4 64.7,29.4 64.7,22.3 62.1,22.3 62.1,21.3 68.6,21.3 68.6,22.3 "/>
<path d="M80.8,29.4l-2.2-3.5c-0.2,0-0.6,0-1.2-0.1v3.6h-1.1v-8.2c0.1,0,0.3,0,0.9-0.1c0.6,0,1-0.1,1.2-0.1c2,0,3,0.8,3,2.4
	c0,0.5-0.2,1-0.5,1.4c-0.3,0.4-0.7,0.6-1.1,0.8l2.4,3.8L80.8,29.4L80.8,29.4z M77.4,22.3V25c0.2,0,0.6,0.1,0.8,0.1
	c0.7,0,1.2-0.1,1.5-0.3c0.3-0.2,0.5-0.6,0.5-1.2c0-0.5-0.2-0.8-0.5-1c-0.3-0.2-0.9-0.3-1.6-0.3C78,22.2,77.8,22.2,77.4,22.3"/>
<path d="M94,29.4l-0.6-1.7h-3.1l-0.6,1.7h-1.3l3.3-8.3h0.3l3.1,8.3H94z M91.9,23.3l-1.3,3.6h2.5L91.9,23.3z"/>
<rect x="102.4" y="21.3" width="1.1" height="8.2"/>
<polygon points="114.1,22.3 114.1,29.4 113,29.4 113,22.3 110.4,22.3 110.4,21.3 116.9,21.3 116.9,22.3 "/>
<polygon points="125.2,22.3 125.2,24.5 127.9,24.5 127.9,25.5 125.2,25.5 125.2,28.4 128.9,28.4 128.9,29.4 124,29.4 124,21.3 
	129,21.3 129,22.3 "/>
<path d="M136.6,21.3h1.1v5.6c0,0.5,0.2,1,0.5,1.3c0.3,0.3,0.7,0.5,1.3,0.5c0.6,0,1-0.2,1.3-0.5c0.3-0.3,0.5-0.7,0.5-1.3v-5.5h1.1
	v5.7c0,0.8-0.2,1.5-0.8,1.9c-0.6,0.5-1.3,0.7-2.1,0.7c-1,0-1.7-0.2-2.1-0.7c-0.5-0.5-0.7-1.1-0.7-2L136.6,21.3L136.6,21.3z"/>
<path d="M155.6,29.4l-2.2-3.5c-0.2,0-0.6,0-1.2-0.1v3.6h-1.1v-8.2c0.1,0,0.3,0,0.9-0.1c0.6,0,1-0.1,1.2-0.1c2,0,3,0.8,3,2.4
	c0,0.5-0.2,1-0.5,1.4c-0.3,0.4-0.7,0.6-1.1,0.8l2.4,3.8L155.6,29.4L155.6,29.4z M152.2,22.3V25c0.2,0,0.6,0.1,0.8,0.1
	c0.7,0,1.2-0.1,1.5-0.3c0.3-0.2,0.5-0.6,0.5-1.2c0-0.5-0.2-0.8-0.5-1c-0.3-0.2-0.9-0.3-1.6-0.3C152.7,22.2,152.5,22.2,152.2,22.3"/>
<polygon points="179.6,29.7 178.7,24.4 176.9,29.8 176.6,29.8 174.7,24.4 173.8,29.7 172.7,29.7 174.3,21.5 174.7,21.5 176.7,27.5 
	178.5,21.5 179.1,21.5 180.8,29.7 "/>
<path d="M193.2,29.7l-0.6-1.7h-3.1l-0.6,1.7h-1.3l3.3-8.3h0.3l3.1,8.3H193.2z M191.1,23.5l-1.3,3.6h2.5L191.1,23.5z"/>
<polygon points="206.5,29.7 204.5,26.4 202.6,29.7 201.4,29.7 203.9,25.4 201.7,21.5 202.8,21.5 204.5,24.6 206.5,21.5 207.6,21.5 
	205,25.4 207.8,29.7 "/>
<rect x="214.5" y="21.5" width="1.1" height="8.2"/>
<polygon points="230.5,29.7 229.5,24.4 227.7,29.8 227.4,29.8 225.6,24.4 224.6,29.7 223.5,29.7 225.1,21.5 225.6,21.5 227.5,27.5 
	229.4,21.5 229.8,21.5 231.6,29.7 "/>
<polygon points="240.3,22.5 240.3,24.8 243,24.8 243,25.7 240.3,25.7 240.3,28.7 244,28.7 244,29.7 239.1,29.7 239.1,21.5 
	244.1,21.5 244.1,22.5 "/>
<g>
	<path class="st0" d="M29.2,10.9v26.7H28V14.3l-6.6,18l-6.3-11.7v16.9H14V10.9h1.2l7.7,14l5.1-14C28.1,10.9,29.2,10.9,29.2,10.9z
		 M21.6,28.4l-6.4-11.9v1.7l6.1,11.2L21.6,28.4z"/>
	<path class="st0" d="M32.3,10.9c-1.3,0-1.9,3.2-2.1,4.9c-0.2,3.5,0.8,7.2,0.8,10.4c0,2-0.2,3.9-0.3,6.3c-0.1,1.8-1,5.1,0.9,5.1
		c1.7,0,1-3.4,0.9-5c-0.2-5.8-0.4-11.4,0-17.6C32.7,13.6,32.9,11,32.3,10.9"/>
	<path d="M47,23.6c0-0.5-0.2-1-0.5-1.6c0.2-0.6,0.3-1.1,0.2-1.6c-0.1-0.5-0.3-1-0.7-1.5c0.1-0.6,0.2-1.2,0-1.7
		c-0.1-0.4-0.4-0.9-0.8-1.3c0-0.6,0-1.1-0.2-1.5c-0.2-0.4-0.5-0.8-0.9-1.2c0-0.6-0.2-1.1-0.4-1.4c-0.2-0.4-0.6-0.8-1.2-1.1
		c-0.1-0.6-0.3-1.1-0.6-1.5c-0.3-0.4-0.8-0.7-1.4-1c-0.2-0.6-0.5-1.2-0.8-1.5c-0.3-0.3-0.8-0.6-1.4-0.7c-0.3-0.5-0.6-1-0.9-1.2
		c-0.3-0.2-0.8-0.4-1.4-0.6c-0.3-0.5-0.7-0.9-1-1.1c-0.4-0.2-0.9-0.3-1.6-0.4c-0.4-0.5-0.9-0.9-1.3-1c-0.3-0.1-0.7-0.2-1.1-0.2
		c-0.2,0-0.4,0-0.6,0c-0.5-0.4-1-0.8-1.4-0.9c-0.2,0-0.4-0.1-0.6-0.1c-0.3,0-0.6,0-1,0.1c-0.5-0.3-1-0.6-1.4-0.6
		c-0.4-0.1-0.9,0.1-1.4,0.2c-0.6-0.3-1-0.4-1.5-0.4c-0.5,0-1,0.2-1.6,0.5c-0.5-0.2-0.9-0.3-1.3-0.3c-0.1,0-0.2,0-0.3,0
		c-0.5,0.1-1,0.3-1.5,0.7c-0.4-0.1-0.7-0.1-1-0.1c-0.2,0-0.5,0-0.7,0.1c-0.4,0.1-0.9,0.4-1.3,0.8c-0.1,0-0.1,0-0.2,0
		c-0.6,0-1,0.1-1.4,0.2c-0.4,0.2-0.8,0.5-1.2,0.9c-0.6,0.1-1.1,0.2-1.4,0.4c-0.4,0.2-0.8,0.6-1.1,1.2C9.8,4.5,9.3,4.7,9,4.9
		C8.6,5.2,8.3,5.7,8,6.3C7.4,6.5,6.8,6.8,6.5,7.2C6.2,7.5,6,7.9,5.8,8.5c-0.5,0.3-1,0.6-1.2,0.9C4.3,9.8,4.1,10.2,4,10.8
		c-0.5,0.3-0.9,0.7-1.1,1c-0.2,0.4-0.3,1-0.4,1.6c-0.5,0.4-0.8,0.9-1,1.3c-0.2,0.5-0.2,1-0.2,1.7c-0.4,0.5-0.8,1-0.9,1.4
		c-0.1,0.4-0.1,1,0,1.5c-0.3,0.5-0.6,1-0.6,1.4c-0.1,0.4,0,0.9,0.2,1.4c-0.2,0.5-0.4,1-0.4,1.4c0,0.5,0.2,1,0.5,1.6
		C0,25.8-0.1,26.3,0,26.8c0.1,0.5,0.3,1,0.7,1.5c-0.1,0.6-0.2,1.2,0,1.7c0.1,0.4,0.4,0.9,0.8,1.3c0,0.6,0,1.1,0.2,1.5
		c0.2,0.4,0.5,0.8,0.9,1.2c0,0.6,0.2,1.1,0.4,1.4c0.2,0.4,0.6,0.8,1.2,1.1c0.1,0.6,0.3,1.1,0.6,1.5c0.3,0.4,0.8,0.7,1.4,1
		c0.2,0.6,0.5,1.2,0.8,1.5c0.3,0.3,0.8,0.6,1.4,0.7c0.3,0.5,0.6,1,0.9,1.2c0.3,0.2,0.8,0.4,1.4,0.6c0.3,0.5,0.7,0.9,1,1.1
		c0.4,0.2,0.9,0.3,1.6,0.4c0.4,0.5,0.9,0.9,1.3,1c0.3,0.1,0.7,0.2,1.1,0.2c0.2,0,0.4,0,0.6,0c0.5,0.4,1,0.8,1.4,0.9
		c0.2,0,0.4,0.1,0.6,0.1l0,0c0.3,0,0.6,0,1-0.1c0.5,0.3,1,0.6,1.4,0.6c0.1,0,0.1,0,0.2,0c0.4,0,0.8-0.1,1.3-0.2
		c0.5,0.2,1,0.4,1.4,0.4c0.5,0,1-0.2,1.6-0.5c0.5,0.2,0.9,0.3,1.3,0.3c0.1,0,0.2,0,0.3,0c0.5-0.1,1-0.3,1.5-0.7
		c0.4,0.1,0.7,0.1,1,0.1c0.2,0,0.5,0,0.7-0.1c0.4-0.1,0.9-0.4,1.3-0.8c0.1,0,0.1,0,0.2,0c0.6,0,1-0.1,1.4-0.2
		c0.4-0.2,0.8-0.5,1.2-0.9c0.6-0.1,1.1-0.2,1.4-0.4c0.4-0.2,0.8-0.6,1.1-1.2c0.7-0.1,1.2-0.3,1.5-0.6c0.4-0.3,0.7-0.8,1-1.4
		c0.6-0.2,1.2-0.5,1.5-0.8c0.3-0.3,0.6-0.8,0.7-1.4c0.5-0.3,1-0.6,1.2-0.9c0.2-0.3,0.4-0.8,0.6-1.4c0.5-0.3,0.9-0.7,1.1-1
		c0.2-0.4,0.3-1,0.4-1.6c0.5-0.4,0.8-0.9,1-1.3c0.2-0.5,0.2-1,0.2-1.7c0.4-0.5,0.8-1,0.9-1.4c0.1-0.4,0.1-1,0-1.5
		c0.3-0.5,0.6-1,0.6-1.4c0.1-0.4,0-0.9-0.2-1.4C46.9,24.6,47,24.1,47,23.6 M46.9,23.6c0,0.3-0.1,0.7-0.3,1.2
		c-0.2-0.4-0.4-0.9-0.6-1.3c0.2-0.4,0.4-0.8,0.5-1.2C46.7,22.8,46.9,23.3,46.9,23.6 M44.1,33.8c-0.3,0.3-0.7,0.5-1,0.8
		c0-0.6,0-1.1,0-1.5c0.3-0.2,0.7-0.5,1-0.8C44.1,32.8,44.1,33.3,44.1,33.8 M33.2,44.3c-0.3,0-0.6,0-0.8,0c0.3-0.4,0.6-0.8,0.9-1.2
		c0.2,0,0.4,0,0.6,0c0.2,0,0.5,0,0.7,0c-0.3,0.4-0.6,0.8-0.9,1.2C33.5,44.3,33.4,44.3,33.2,44.3 M31.1,45.4c-0.5,0-1-0.1-1.5-0.2
		c0.3-0.3,0.6-0.6,0.9-1c0.5,0.1,1,0.2,1.5,0.2C31.7,44.8,31.4,45.1,31.1,45.4 M2.8,32.6c0.4,0.3,0.8,0.6,1.2,0.9c0,0.4,0,0.9,0,1.4
		c-0.4-0.3-0.8-0.6-1.2-0.9C2.8,33.5,2.8,33.1,2.8,32.6 M2.8,13.5c0.3-0.3,0.7-0.5,1-0.8c0,0.6,0,1.1,0,1.5c-0.3,0.2-0.7,0.5-1,0.8
		C2.8,14.5,2.7,14,2.8,13.5 M13.7,3c0.3,0,0.6,0,0.8,0c-0.3,0.4-0.6,0.8-0.9,1.2c-0.2,0-0.4,0-0.6,0c-0.2,0-0.5,0-0.7,0
		c0.3-0.4,0.6-0.8,0.9-1.2C13.3,3,13.5,3,13.7,3 M15.8,1.9c0.5,0,1,0.1,1.5,0.2c-0.3,0.3-0.6,0.6-0.9,1c-0.5-0.1-1-0.2-1.5-0.2
		C15.2,2.5,15.5,2.2,15.8,1.9 M44,14.7c-0.4-0.3-0.8-0.6-1.2-0.9c0-0.4,0-0.9,0-1.4c0.4,0.3,0.8,0.6,1.2,0.9
		C44.1,13.8,44.1,14.2,44,14.7 M44,26.3c0,0,0.2,0.6,0.5,1.5c-0.6,0.7-1,1.2-1,1.2l0,0v0.1c0,0,0.2,0.6,0.3,1.4
		c-0.6,0.6-1.1,0.9-1.1,0.9l0,0v0.1c0,0,0.1,0.6,0.1,1.5c-0.7,0.5-1.2,0.8-1.2,0.8l-0.1,0v0.1c0,0,0,0.7-0.1,1.6
		c-0.8,0.4-1.5,0.7-1.5,0.7l-0.1,0v0.1c0,0-0.1,0.7-0.3,1.5c-0.8,0.3-1.5,0.5-1.5,0.5H38l0,0.1c0,0-0.2,0.6-0.4,1.4
		c-0.8,0.2-1.4,0.3-1.4,0.3h-0.1l0,0.1c0,0-0.2,0.6-0.6,1.3c-0.8,0.1-1.4,0.1-1.5,0.1h-0.1l0,0.1c0,0-0.4,0.6-0.9,1.4
		c-0.9,0-1.6-0.1-1.6-0.1h-0.1l0,0c0,0-0.4,0.5-1,1.2c-0.9-0.2-1.5-0.3-1.5-0.3h-0.1l0,0c0,0-0.4,0.4-1,1c-0.8-0.2-1.3-0.5-1.4-0.5
		l-0.1,0l-0.1,0c0,0-0.5,0.4-1.2,0.8c-0.8-0.3-1.3-0.6-1.3-0.6l-0.1,0l-0.1,0c0,0-0.6,0.4-1.4,0.8c-0.8-0.5-1.4-0.9-1.4-0.9l0,0
		l-0.1,0c0,0-0.6,0.2-1.5,0.5c-0.7-0.6-1.2-1-1.2-1l0,0h-0.1c0,0-0.6,0.2-1.4,0.3c-0.6-0.6-0.9-1.1-0.9-1.1l0,0h-0.1
		c0,0-0.6,0.1-1.4,0.1c-0.5-0.7-0.8-1.2-0.8-1.2l0-0.1H13c-0.2,0-0.8,0-1.6-0.1c-0.4-0.8-0.7-1.5-0.7-1.5l0-0.1h-0.1
		c0,0-0.7-0.1-1.5-0.3c-0.3-0.8-0.5-1.5-0.5-1.5v-0.1H8.6c0,0-0.6-0.2-1.4-0.4C7.1,37.1,7,36.5,7,36.5v-0.1l-0.1,0
		c0,0-0.6-0.2-1.3-0.6c-0.1-0.8-0.1-1.4-0.1-1.5v-0.1l-0.1,0c0,0-0.6-0.4-1.4-0.9c0-0.9,0.1-1.6,0.1-1.6v-0.1l0,0c0,0-0.5-0.4-1.2-1
		c0.2-0.9,0.3-1.5,0.3-1.5V29l0,0c0,0-0.4-0.4-1-1c0.2-0.8,0.5-1.3,0.5-1.4l0-0.1l0,0c0,0-0.4-0.5-0.8-1.2C2.2,24.5,2.5,24,2.5,24
		l0-0.1l0-0.1c0,0-0.4-0.6-0.8-1.4c0.5-0.8,0.9-1.4,0.9-1.4l0-0.1l0-0.1c0,0-0.2-0.6-0.5-1.5c0.6-0.7,1-1.2,1-1.2l0,0v-0.1
		c0,0-0.2-0.6-0.3-1.4c0.6-0.6,1.1-0.9,1.1-0.9l0,0v-0.1c0,0-0.1-0.6-0.1-1.5c0.7-0.5,1.2-0.8,1.2-0.8l0.2,0v-0.1c0,0,0-0.7,0.1-1.6
		c0.8-0.4,1.5-0.7,1.5-0.7l0.1,0V11c0,0,0.1-0.7,0.3-1.5C8,9.2,8.7,9,8.7,9h0.1l0-0.1c0,0,0.2-0.6,0.4-1.4c0.8-0.2,1.4-0.3,1.4-0.3
		h0.1l0-0.1c0,0,0.2-0.6,0.6-1.3c0.8-0.1,1.4-0.1,1.5-0.1h0.1l0-0.1c0,0,0.4-0.6,0.9-1.4c0.9,0,1.6,0.1,1.6,0.1h0.1l0,0
		c0,0,0.4-0.5,1-1.2C17.3,3.4,18,3.6,18,3.6H18l0,0c0,0,0.4-0.4,1-1c0.8,0.2,1.3,0.5,1.4,0.5l0.1,0l0,0c0,0,0.5-0.4,1.2-0.8
		c0.8,0.3,1.3,0.6,1.3,0.6l0.1,0l0.1,0c0,0,0.6-0.4,1.4-0.8C25.4,2.6,26,3,26,3l0,0l0.1,0c0,0,0.6-0.2,1.5-0.5c0.7,0.6,1.2,1,1.2,1
		l0,0h0.1c0,0,0.6-0.2,1.4-0.3c0.6,0.6,0.9,1.1,0.9,1.1l0,0h0.1c0,0,0.6-0.1,1.4-0.1c0.5,0.7,0.8,1.2,0.8,1.2l0,0.1h0.2
		c0.2,0,0.8,0,1.6,0.1c0.4,0.8,0.7,1.5,0.7,1.5l0,0.1H36c0,0,0.7,0.1,1.5,0.3c0.3,0.8,0.5,1.5,0.5,1.5l0,0.1h0.1
		c0,0,0.6,0.2,1.4,0.4c0.2,0.8,0.3,1.4,0.3,1.4v0.1l0.1,0c0,0,0.6,0.2,1.3,0.6c0.1,0.8,0.1,1.4,0.1,1.5V13l0.1,0
		c0,0,0.6,0.4,1.4,0.9c0,0.9-0.1,1.6-0.1,1.6v0.1l0,0c0,0,0.5,0.4,1.2,1c-0.2,0.9-0.3,1.5-0.3,1.5v0.1l0,0c0,0,0.4,0.4,1,1.1
		c-0.2,0.8-0.5,1.3-0.5,1.4l0,0.1l0,0c0,0,0.4,0.5,0.8,1.2c-0.3,0.8-0.6,1.3-0.6,1.3l0,0.1l0,0.1c0,0,0.4,0.6,0.8,1.4
		C44.5,25.7,44.1,26.2,44,26.3L44,26.3L44,26.3z M44.4,23.4c0.1-0.2,0.3-0.6,0.6-1.2c0.2,0.4,0.5,0.8,0.8,1.3
		c-0.2,0.4-0.4,0.8-0.6,1.2C44.7,24,44.5,23.5,44.4,23.4 M45.1,22c0.2-0.4,0.3-0.8,0.5-1.2c0.3,0.4,0.6,0.9,0.8,1.3
		c-0.2,0.4-0.3,0.8-0.5,1.2C45.6,22.8,45.3,22.4,45.1,22 M44.9,21.8c-0.3-0.5-0.6-0.9-0.7-1c0.1-0.2,0.2-0.6,0.4-1.2
		c0.3,0.3,0.6,0.7,0.8,1C45.3,21,45.1,21.4,44.9,21.8 M44.7,19.3c0.1-0.4,0.3-0.9,0.4-1.4c0.3,0.3,0.6,0.7,0.9,1
		c-0.1,0.5-0.2,0.9-0.4,1.4C45.2,20,45,19.6,44.7,19.3 M44.5,19.1c-0.4-0.5-0.7-0.8-0.9-0.9c0-0.2,0.2-0.7,0.3-1.4
		c0.3,0.3,0.6,0.6,0.9,0.9C44.8,18.2,44.7,18.7,44.5,19.1 M44,16.6c0.1-0.5,0.2-1,0.2-1.5c0.3,0.3,0.7,0.6,1,0.9
		c0,0.5-0.1,1-0.2,1.5C44.6,17.2,44.3,16.9,44,16.6 M43.8,16.4c-0.5-0.5-0.9-0.8-1.1-0.9c0-0.2,0.1-0.7,0.1-1.5
		c0.4,0.2,0.8,0.6,1.1,0.9C44,15.5,43.9,16,43.8,16.4 M42.7,13.7c-0.6-0.4-1.1-0.7-1.2-0.8c0-0.2,0-0.6-0.1-1.3
		c0.4,0.2,0.9,0.5,1.3,0.7C42.7,12.8,42.7,13.3,42.7,13.7 M41.4,11.4c0-0.4-0.1-0.8-0.2-1.3c0.5,0.2,0.9,0.5,1.3,0.7
		c0.1,0.4,0.1,0.8,0.2,1.3C42.2,11.8,41.8,11.6,41.4,11.4 M41.1,11.3c-0.6-0.3-1-0.5-1.2-0.6c0-0.2-0.1-0.6-0.2-1.2
		c0.4,0.2,0.8,0.3,1.3,0.5C41,10.4,41.1,10.9,41.1,11.3 M39.7,9.3c-0.1-0.4-0.2-0.9-0.4-1.4c0.4,0.2,0.9,0.3,1.3,0.5
		c0.2,0.4,0.2,0.9,0.3,1.4C40.5,9.6,40,9.4,39.7,9.3 M39.4,9.2c-0.6-0.2-1-0.3-1.2-0.4c-0.1-0.2-0.2-0.7-0.4-1.3
		c0.4,0.1,0.8,0.2,1.3,0.3C39.2,8.3,39.3,8.7,39.4,9.2 M37.7,7.2c-0.2-0.4-0.4-0.9-0.6-1.4C37.6,5.9,38,6,38.4,6.1
		c0.2,0.4,0.4,0.9,0.6,1.4C38.5,7.5,38.1,7.3,37.7,7.2 M37.5,7.2C36.8,7.1,36.3,7,36.1,7c-0.1-0.2-0.3-0.7-0.6-1.3
		c0.4,0,0.9,0.1,1.4,0.2C37.1,6.3,37.3,6.8,37.5,7.2 M35.4,5.4C35.2,5,35,4.6,34.7,4.2c0.6,0,1,0.1,1.4,0.2c0.2,0.3,0.5,0.7,0.6,1.2
		C36.3,5.5,35.8,5.4,35.4,5.4 M35.1,5.4c-0.7,0-1.2-0.1-1.4-0.1h0c-0.1-0.2-0.3-0.6-0.7-1.1c0.4,0,0.9,0,1.4,0c0.1,0,0.1,0,0.2,0
		C34.7,4.6,35,5,35.1,5.4 M34.3,4.1c-0.5,0-1,0-1.5,0c-0.2-0.3-0.5-0.7-0.8-1C32.4,3,32.8,3,33.2,3c0.2,0,0.3,0,0.4,0
		C33.9,3.3,34.1,3.7,34.3,4.1C34.3,4.1,34.3,4.1,34.3,4.1 M32.6,4.1c-0.6,0-1.1,0.1-1.3,0.1c-0.1-0.1-0.4-0.5-0.8-1
		c0.4-0.1,0.9-0.1,1.3-0.2C32.1,3.4,32.3,3.7,32.6,4.1 M30.3,3.1c-0.3-0.3-0.6-0.7-1-1c0.5-0.1,0.9-0.2,1.3-0.2
		c0.3,0.3,0.7,0.7,1,1.1C31.1,2.9,30.7,3,30.3,3.1 M30.1,3.1c-0.6,0.1-1.1,0.2-1.2,0.2c-0.1-0.1-0.5-0.5-1-1
		c0.4-0.1,0.8-0.2,1.2-0.3C29.4,2.4,29.8,2.8,30.1,3.1 M27.6,2.3c-0.4-0.3-0.8-0.6-1.2-0.9c0.4-0.2,0.8-0.3,1.2-0.4
		c0.4,0.3,0.8,0.6,1.2,1C28.4,2,28,2.1,27.6,2.3 M27.4,2.4c-0.6,0.2-1.2,0.4-1.3,0.5c-0.2-0.1-0.6-0.4-1.2-0.8
		c0.4-0.2,0.9-0.4,1.4-0.6C26.6,1.7,27,2.1,27.4,2.4 M24.7,1.9c-0.4-0.2-0.7-0.5-1.2-0.7C24,1,24.4,0.8,24.9,0.6
		C25.2,0.8,25.6,1,26,1.3C25.5,1.5,25.1,1.7,24.7,1.9 M24.5,2c-0.6,0.3-1.1,0.6-1.3,0.7C23,2.6,22.6,2.4,22,2.1
		c0.4-0.2,0.8-0.5,1.3-0.8C23.7,1.5,24.1,1.7,24.5,2 M21.8,2c-0.4-0.2-0.8-0.3-1.2-0.5c0.4-0.3,0.9-0.6,1.3-0.8
		c0.4,0.2,0.8,0.3,1.2,0.5C22.6,1.5,22.2,1.7,21.8,2 M21.6,2.1c-0.5,0.3-0.9,0.6-1.1,0.7c-0.2-0.1-0.6-0.2-1.2-0.4
		c0.3-0.3,0.7-0.6,1-0.8C20.8,1.8,21.2,2,21.6,2.1 M19.1,2.4c-0.4-0.1-0.9-0.3-1.4-0.4c0.3-0.3,0.7-0.6,1-0.9
		c0.5,0.1,0.9,0.2,1.4,0.4C19.8,1.8,19.4,2.1,19.1,2.4 M18.9,2.5c-0.5,0.4-0.8,0.7-0.9,0.9c-0.2,0-0.7-0.2-1.4-0.3
		c0.3-0.3,0.6-0.6,0.9-0.9C18,2.3,18.5,2.4,18.9,2.5 M16.2,3.2c-0.5,0.5-0.8,0.9-0.9,1.1c-0.2,0-0.7-0.1-1.5-0.1
		c0.2-0.4,0.6-0.8,0.9-1.1C15.3,3.1,15.8,3.1,16.2,3.2 M13,4.4c0.2,0,0.3,0,0.5,0c-0.4,0.6-0.7,1.1-0.8,1.2c-0.2,0-0.6,0-1.3,0.1
		c0.2-0.4,0.5-0.9,0.7-1.3C12.4,4.4,12.7,4.4,13,4.4 M11.2,5.7c-0.4,0-0.8,0.1-1.3,0.2c0.2-0.5,0.5-0.9,0.7-1.3
		c0.4-0.1,0.8-0.1,1.3-0.2C11.6,4.8,11.4,5.3,11.2,5.7 M11,5.9c-0.3,0.6-0.5,1-0.6,1.2c-0.2,0-0.6,0.1-1.2,0.2
		c0.2-0.4,0.3-0.8,0.5-1.3C10.2,6,10.6,6,11,5.9 M9.1,7.4C8.6,7.5,8.2,7.6,7.7,7.8C7.8,7.3,8,6.9,8.1,6.5c0.4-0.2,0.9-0.2,1.4-0.3
		C9.4,6.6,9.2,7,9.1,7.4 M9,7.6c-0.2,0.6-0.3,1-0.4,1.2C8.4,8.9,7.9,9,7.3,9.2C7.4,8.8,7.5,8.4,7.6,8C8.1,7.8,8.5,7.7,9,7.6 M7,9.3
		C6.6,9.5,6.1,9.7,5.6,9.9c0.1-0.4,0.2-0.9,0.3-1.3c0.4-0.2,0.9-0.4,1.4-0.6C7.2,8.5,7.1,8.9,7,9.3 M7,9.5c-0.2,0.7-0.2,1.2-0.2,1.4
		C6.6,11,6,11.2,5.4,11.6c0-0.5,0.1-0.9,0.2-1.4C6,9.9,6.5,9.7,7,9.5 M5.2,11.7c-0.4,0.2-0.8,0.4-1.2,0.7c0-0.5,0.1-1,0.2-1.4
		c0.3-0.2,0.7-0.5,1.2-0.6C5.3,10.7,5.2,11.2,5.2,11.7 M5.2,11.9c-0.1,0.7-0.1,1.3-0.1,1.5c-0.2,0.1-0.6,0.3-1.1,0.7
		c0-0.5,0-1,0-1.5C4.4,12.3,4.8,12.1,5.2,11.9 M3.9,14.5c0,0.6,0.1,1.1,0.1,1.3c-0.1,0.1-0.5,0.4-1,0.8c-0.1-0.4-0.1-0.9-0.2-1.3
		C3.2,15,3.5,14.7,3.9,14.5 M2.9,16.8c-0.3,0.3-0.7,0.6-1,1c-0.1-0.5-0.2-0.9-0.2-1.3c0.3-0.3,0.7-0.7,1.1-1
		C2.7,15.9,2.8,16.4,2.9,16.8 M2.9,17C3,17.6,3.1,18,3.1,18.2c-0.1,0.1-0.5,0.5-1,1c-0.1-0.4-0.2-0.8-0.3-1.2
		C2.2,17.6,2.6,17.3,2.9,17 M2.1,19.4c-0.3,0.4-0.6,0.8-0.9,1.2c-0.2-0.4-0.3-0.8-0.4-1.2c0.3-0.4,0.6-0.8,1-1.2
		C1.8,18.6,1.9,19.1,2.1,19.4 M2.1,19.7c0.2,0.6,0.4,1.2,0.5,1.3c-0.1,0.2-0.4,0.6-0.8,1.2c-0.2-0.4-0.4-0.9-0.6-1.4
		C1.5,20.4,1.8,20,2.1,19.7 M1.7,22.4c-0.2,0.3-0.5,0.7-0.7,1.2c-0.2-0.5-0.4-0.9-0.6-1.4c0.2-0.4,0.4-0.8,0.7-1.2
		C1.3,21.5,1.5,22,1.7,22.4 M1.7,22.6c0.3,0.6,0.6,1.1,0.7,1.3c-0.1,0.2-0.3,0.6-0.6,1.2c-0.2-0.4-0.5-0.8-0.8-1.3
		C1.3,23.4,1.5,23,1.7,22.6 M1.8,25.3c-0.2,0.4-0.3,0.8-0.5,1.2c-0.3-0.4-0.6-0.9-0.8-1.3C0.6,24.8,0.8,24.4,1,24
		C1.3,24.5,1.5,24.9,1.8,25.3 M1.9,25.5c0.3,0.5,0.6,0.9,0.7,1c-0.1,0.2-0.2,0.6-0.4,1.2c-0.3-0.3-0.6-0.7-0.8-1
		C1.6,26.3,1.7,25.9,1.9,25.5 M2.1,28c-0.1,0.4-0.3,0.9-0.4,1.4c-0.3-0.3-0.6-0.7-0.9-1c0.1-0.5,0.2-0.9,0.4-1.4
		C1.6,27.3,1.9,27.6,2.1,28 M2.3,28.1c0.4,0.5,0.7,0.8,0.9,0.9c0,0.2-0.2,0.7-0.3,1.4c-0.3-0.3-0.6-0.6-0.9-0.9
		C2.1,29,2.2,28.6,2.3,28.1 M2.8,30.7c-0.1,0.5-0.2,1-0.2,1.5c-0.3-0.3-0.7-0.6-1-0.9c0-0.5,0.1-1,0.2-1.5
		C2.2,30.1,2.5,30.4,2.8,30.7 M3,30.8c0.5,0.5,0.9,0.8,1.1,0.9c0,0.2-0.1,0.7-0.1,1.5c-0.4-0.2-0.8-0.6-1.1-0.9
		C2.9,31.8,2.9,31.3,3,30.8 M4.1,33.6c0.6,0.4,1.1,0.7,1.2,0.8c0,0.2,0,0.6,0.1,1.3c-0.4-0.2-0.9-0.5-1.3-0.7
		C4.1,34.5,4.1,34,4.1,33.6 M5.5,35.9c0,0.4,0.1,0.8,0.2,1.3c-0.5-0.2-0.9-0.5-1.3-0.7c-0.1-0.4-0.1-0.8-0.2-1.3
		C4.6,35.4,5.1,35.7,5.5,35.9 M5.7,36c0.6,0.3,1,0.5,1.2,0.6c0,0.2,0.1,0.6,0.2,1.2c-0.4-0.2-0.8-0.3-1.3-0.5
		C5.8,36.8,5.7,36.4,5.7,36 M7.2,38c0.1,0.4,0.2,0.9,0.4,1.4c-0.4-0.1-0.9-0.3-1.3-0.5C6.1,38.5,6,38,5.9,37.5
		C6.4,37.7,6.8,37.9,7.2,38 M7.4,38.1c0.6,0.2,1,0.3,1.2,0.4c0.1,0.2,0.2,0.7,0.4,1.3c-0.4-0.1-0.8-0.2-1.3-0.3
		C7.6,39,7.5,38.5,7.4,38.1 M9.1,40c0.2,0.4,0.4,0.9,0.6,1.4c-0.4-0.1-0.9-0.2-1.3-0.3c-0.2-0.4-0.4-0.9-0.6-1.4
		C8.3,39.8,8.7,39.9,9.1,40 M9.3,40.1c0.7,0.2,1.2,0.2,1.4,0.2c0.1,0.2,0.3,0.7,0.6,1.3c-0.4,0-0.9-0.1-1.4-0.2
		C9.7,41,9.5,40.5,9.3,40.1 M11.4,41.9c0.2,0.4,0.4,0.8,0.7,1.2c-0.6,0-1-0.1-1.4-0.2c-0.2-0.3-0.5-0.7-0.6-1.2
		C10.5,41.8,11,41.8,11.4,41.9 M11.7,41.9c0.7,0.1,1.2,0.1,1.4,0.1h0c0.1,0.2,0.3,0.6,0.7,1.1c-0.4,0-0.9,0-1.4,0
		c-0.1,0-0.1,0-0.2,0C12.1,42.7,11.9,42.3,11.7,41.9 M12.5,43.2c0.5,0,1,0,1.5,0c0.2,0.3,0.5,0.7,0.8,1c-0.4,0-0.8,0.1-1.2,0.1
		c-0.1,0-0.2,0-0.4,0C13,44,12.7,43.6,12.5,43.2C12.5,43.2,12.5,43.2,12.5,43.2 M14.3,43.2c0.6,0,1.1-0.1,1.3-0.1
		c0.1,0.1,0.4,0.5,0.8,1c-0.4,0.1-0.9,0.1-1.3,0.2C14.8,43.9,14.5,43.5,14.3,43.2 M16.5,44.2c0.3,0.3,0.6,0.7,1,1
		c-0.5,0.1-0.9,0.2-1.3,0.2c-0.3-0.3-0.7-0.7-1-1.1C15.7,44.3,16.1,44.3,16.5,44.2 M16.8,44.2c0.6-0.1,1.1-0.2,1.2-0.2
		c0.1,0.1,0.5,0.5,1,1c-0.4,0.1-0.8,0.2-1.2,0.3C17.4,44.8,17.1,44.5,16.8,44.2 M19.2,45c0.4,0.3,0.8,0.6,1.2,0.9
		c-0.4,0.2-0.8,0.3-1.2,0.4c-0.4-0.3-0.8-0.6-1.2-1C18.4,45.2,18.8,45.1,19.2,45 M19.4,44.9c0.6-0.2,1.2-0.4,1.3-0.5
		c0.2,0.1,0.6,0.4,1.2,0.8c-0.4,0.2-0.9,0.4-1.4,0.6C20.2,45.5,19.8,45.2,19.4,44.9 M22.2,45.4c0.3,0.2,0.7,0.5,1.2,0.7
		c-0.5,0.2-0.9,0.4-1.4,0.6c-0.4-0.2-0.8-0.4-1.2-0.7C21.3,45.8,21.8,45.6,22.2,45.4 M22.4,45.3c0.6-0.3,1.1-0.6,1.3-0.7
		c0.2,0.1,0.6,0.3,1.2,0.6c-0.4,0.2-0.8,0.5-1.3,0.8C23.1,45.7,22.7,45.5,22.4,45.3 M25.1,45.3c0.4,0.2,0.8,0.3,1.2,0.5
		c-0.4,0.3-0.9,0.6-1.3,0.8c-0.4-0.2-0.8-0.3-1.2-0.5C24.2,45.8,24.7,45.5,25.1,45.3 M25.3,45.1c0.5-0.3,0.9-0.6,1-0.7
		c0.2,0.1,0.6,0.2,1.2,0.4c-0.3,0.3-0.7,0.6-1,0.8C26.1,45.5,25.6,45.3,25.3,45.1 M27.7,44.9c0.4,0.1,0.9,0.3,1.4,0.4
		c-0.3,0.3-0.7,0.6-1,0.9c-0.5-0.1-0.9-0.2-1.4-0.4C27.1,45.4,27.4,45.2,27.7,44.9 M27.9,44.7c0.5-0.4,0.8-0.7,0.9-0.9
		c0.2,0,0.7,0.2,1.4,0.3c-0.3,0.3-0.6,0.6-0.9,0.9C28.8,45,28.3,44.9,27.9,44.7 M30.6,44.1c0.5-0.5,0.8-0.9,0.9-1.1
		c0.2,0,0.7,0.1,1.5,0.1c-0.2,0.4-0.6,0.8-0.9,1.1C31.6,44.2,31.1,44.1,30.6,44.1 M33.8,42.9c-0.2,0-0.3,0-0.5,0
		c0.4-0.6,0.7-1.1,0.8-1.2c0.2,0,0.6,0,1.3-0.1C35.2,42,35,42.5,34.7,43C34.4,42.9,34.2,42.9,33.8,42.9 M35.7,41.6
		c0.4,0,0.8-0.1,1.3-0.2c-0.2,0.5-0.5,0.9-0.7,1.4c-0.4,0.1-0.8,0.1-1.3,0.2C35.2,42.4,35.5,42,35.7,41.6 M35.8,41.4
		c0.3-0.6,0.5-1,0.6-1.2c0.2,0,0.6-0.1,1.2-0.2c-0.2,0.4-0.3,0.8-0.5,1.3C36.6,41.3,36.2,41.3,35.8,41.4 M37.8,39.9
		c0.4-0.1,0.9-0.2,1.4-0.4c-0.2,0.4-0.3,0.9-0.5,1.3c-0.4,0.2-0.9,0.2-1.4,0.3C37.5,40.7,37.7,40.3,37.8,39.9 M37.9,39.6
		c0.2-0.6,0.3-1,0.4-1.2c0.2-0.1,0.7-0.2,1.3-0.4c-0.1,0.4-0.2,0.8-0.3,1.3C38.8,39.4,38.3,39.6,37.9,39.6 M39.8,38
		c0.4-0.2,0.9-0.4,1.4-0.6c-0.1,0.4-0.2,0.9-0.3,1.3c-0.4,0.2-0.9,0.4-1.4,0.6C39.6,38.8,39.7,38.4,39.8,38 M39.9,37.7
		c0.2-0.7,0.2-1.2,0.2-1.4c0.2-0.1,0.7-0.3,1.3-0.6c0,0.4-0.1,0.9-0.2,1.4C40.8,37.3,40.3,37.6,39.9,37.7 M41.6,35.6
		c0.4-0.2,0.8-0.4,1.2-0.7c0,0.5-0.1,1-0.2,1.4c-0.3,0.2-0.7,0.5-1.2,0.6C41.6,36.5,41.6,36.1,41.6,35.6 M41.7,35.4
		c0.1-0.7,0.1-1.3,0.1-1.5c0.2-0.1,0.6-0.3,1.1-0.7c0,0.5,0,1,0,1.5C42.4,35,42,35.2,41.7,35.4 M43,32.8c0-0.6-0.1-1.1-0.1-1.3
		c0.1-0.1,0.5-0.4,1-0.8c0.1,0.4,0.1,0.9,0.2,1.3C43.6,32.3,43.3,32.6,43,32.8 M44,30.5c0.3-0.3,0.7-0.6,1-1
		c0.1,0.5,0.2,0.9,0.2,1.3c-0.3,0.3-0.7,0.7-1.1,1C44.1,31.4,44.1,30.9,44,30.5 M43.9,30.3c-0.1-0.6-0.2-1.1-0.2-1.2
		c0.1-0.1,0.5-0.5,1-1c0.1,0.4,0.2,0.8,0.3,1.2C44.6,29.6,44.3,30,43.9,30.3 M44.8,27.8c0.3-0.4,0.6-0.8,0.9-1.2
		c0.2,0.4,0.3,0.8,0.4,1.2c-0.3,0.4-0.6,0.8-1,1.2C45,28.6,44.9,28.2,44.8,27.8 M44.7,27.6c-0.2-0.6-0.4-1.2-0.5-1.3
		c0.1-0.2,0.4-0.6,0.8-1.2c0.2,0.4,0.4,0.9,0.6,1.4C45.3,26.9,45,27.3,44.7,27.6 M45.2,24.9c0.2-0.3,0.5-0.7,0.7-1.2
		c0.2,0.5,0.4,0.9,0.6,1.4c-0.2,0.4-0.4,0.8-0.7,1.2C45.6,25.7,45.4,25.3,45.2,24.9 M46.6,20.5c0.1,0.4,0,0.8-0.2,1.3
		c-0.2-0.4-0.5-0.9-0.8-1.3c0.2-0.5,0.3-0.9,0.4-1.4C46.4,19.6,46.6,20.1,46.6,20.5 M46,17.3c0.1,0.4,0.1,0.9,0,1.4
		c-0.2-0.3-0.6-0.7-0.9-1c0.1-0.5,0.2-1,0.2-1.5C45.7,16.6,45.9,16.9,46,17.3 M45,14.5c0.2,0.3,0.2,0.8,0.2,1.2
		c-0.3-0.3-0.6-0.6-1-0.9c0-0.5,0.1-0.9,0-1.3C44.6,13.8,44.9,14.2,45,14.5 M43.7,11.9c0.2,0.3,0.3,0.7,0.3,1.1
		c-0.3-0.3-0.7-0.6-1.2-0.8c0-0.4-0.1-0.9-0.1-1.3C43.2,11.3,43.5,11.6,43.7,11.9 M41.9,9.3c0.2,0.3,0.4,0.7,0.5,1.3
		c-0.4-0.2-0.9-0.5-1.3-0.7c-0.1-0.5-0.2-1-0.3-1.4C41.3,8.7,41.7,9,41.9,9.3 M39.8,6.8c0.3,0.3,0.5,0.7,0.7,1.2
		c-0.4-0.2-0.8-0.3-1.3-0.5c-0.2-0.5-0.3-1-0.6-1.4C39.1,6.4,39.5,6.6,39.8,6.8 M37.5,4.9c0.3,0.2,0.5,0.6,0.8,1
		c-0.4-0.1-0.8-0.2-1.2-0.3c-0.2-0.4-0.4-0.8-0.6-1.1C36.9,4.6,37.3,4.7,37.5,4.9 M35.1,3.3c0.3,0.2,0.6,0.5,0.9,0.8
		c-0.4-0.1-0.9-0.1-1.4-0.1c-0.2-0.4-0.5-0.7-0.7-1C34.4,3,34.8,3.2,35.1,3.3 M31.2,1.8c0.4,0,0.8,0.1,1.1,0.2
		c0.4,0.2,0.7,0.5,1.1,0.8c-0.1,0-0.1,0-0.2,0c-0.4,0-0.9,0-1.3,0.1c-0.3-0.4-0.6-0.7-1-1.1C31,1.8,31.1,1.8,31.2,1.8 M28.7,0.9
		c0.2,0,0.4,0,0.5,0.1C29.6,1,30,1.3,30.4,1.6c-0.4,0.1-0.9,0.1-1.3,0.2C28.8,1.5,28.4,1.2,28,1C28.2,0.9,28.4,0.9,28.7,0.9
		 M26.3,0.4c0.3,0,0.7,0.2,1.1,0.5C27,0.9,26.6,1,26.2,1.2c-0.4-0.2-0.7-0.5-1.1-0.7C25.6,0.4,26,0.3,26.3,0.4 M23.4,0.2
		c0.3,0,0.8,0.1,1.2,0.3c-0.4,0.2-0.9,0.4-1.3,0.6c-0.4-0.2-0.8-0.4-1.2-0.5C22.6,0.3,23,0.2,23.4,0.2 M20.3,0.4c0.1,0,0.2,0,0.2,0
		c0.3,0,0.7,0.1,1.1,0.2c-0.4,0.2-0.9,0.5-1.3,0.8C19.9,1.2,19.4,1.1,19,1C19.4,0.7,19.9,0.5,20.3,0.4 M17.1,1.1
		C17.2,1,17.5,1,17.7,1c0.2,0,0.5,0,0.8,0.1c-0.3,0.2-0.7,0.6-1,0.9c-0.5-0.1-1-0.2-1.5-0.2C16.4,1.4,16.7,1.2,17.1,1.1 M14.3,2.1
		c0.3-0.1,0.7-0.2,1.2-0.2c-0.3,0.3-0.6,0.6-0.9,1c-0.3,0-0.6-0.1-1-0.1c-0.1,0-0.2,0-0.3,0C13.6,2.5,14,2.2,14.3,2.1 M11.7,3.3
		C12,3.2,12.3,3.1,12.8,3c-0.3,0.3-0.6,0.7-0.8,1.2c-0.5,0-0.9,0.1-1.3,0.1C11,3.9,11.4,3.5,11.7,3.3 M9.1,5.1
		c0.3-0.2,0.7-0.4,1.3-0.5C10.1,5,9.9,5.5,9.7,5.9C9.2,6,8.7,6.1,8.3,6.3C8.5,5.7,8.8,5.3,9.1,5.1 M6.6,7.3C6.9,7,7.4,6.8,7.9,6.6
		C7.7,7,7.5,7.4,7.4,7.8C6.9,8,6.4,8.2,6,8.4C6.2,7.9,6.4,7.5,6.6,7.3 M4.7,9.5c0.2-0.3,0.6-0.5,1-0.8C5.5,9.1,5.4,9.6,5.4,10
		c-0.4,0.2-0.8,0.4-1.1,0.6C4.4,10.2,4.5,9.8,4.7,9.5 M3.1,11.9C3.3,11.6,3.6,11.3,4,11c-0.1,0.5-0.1,0.9-0.1,1.4
		c-0.4,0.2-0.7,0.5-1,0.7C2.8,12.7,2.9,12.2,3.1,11.9 M1.7,14.7c0.2-0.4,0.5-0.7,0.8-1.1c0,0.5,0,1,0.1,1.5c-0.4,0.3-0.7,0.6-1,1
		C1.5,15.6,1.6,15.1,1.7,14.7 M0.7,17.9c0.1-0.4,0.4-0.8,0.7-1.2c0.1,0.4,0.1,0.9,0.2,1.3c-0.3,0.4-0.7,0.8-1,1.2
		C0.6,18.6,0.6,18.2,0.7,17.9 M0.2,20.8c0-0.4,0.2-0.7,0.5-1.2C0.7,20,0.8,20.4,1,20.8c-0.2,0.4-0.5,0.7-0.7,1.1
		C0.2,21.5,0.1,21.1,0.2,20.8 M0,23.6c0-0.3,0.1-0.7,0.3-1.2c0.2,0.4,0.4,0.9,0.6,1.3c-0.2,0.4-0.4,0.8-0.5,1.2
		C0.1,24.5,0,24,0,23.6 M0.2,26.8c-0.1-0.4,0-0.8,0.2-1.3c0.2,0.4,0.5,0.9,0.8,1.3c-0.2,0.5-0.3,0.9-0.4,1.4
		C0.5,27.6,0.2,27.2,0.2,26.8 M0.9,30c-0.1-0.4-0.1-0.9,0-1.4c0.2,0.3,0.6,0.7,0.9,1c-0.1,0.5-0.2,1-0.2,1.5C1.2,30.7,1,30.3,0.9,30
		 M1.8,32.8c-0.2-0.3-0.2-0.8-0.2-1.2c0.3,0.3,0.6,0.6,1,0.9c0,0.5-0.1,0.9,0,1.3C2.2,33.4,2,33.1,1.8,32.8 M3.1,35.4
		c-0.2-0.3-0.3-0.7-0.3-1.1C3.2,34.5,3.6,34.8,4,35c0,0.4,0.1,0.9,0.1,1.3C3.7,36,3.3,35.7,3.1,35.4 M4.9,38
		c-0.2-0.3-0.4-0.7-0.5-1.3c0.4,0.2,0.9,0.5,1.3,0.7c0.1,0.5,0.2,1,0.3,1.4C5.5,38.5,5.1,38.3,4.9,38 M7.1,40.4
		c-0.3-0.3-0.5-0.7-0.7-1.2c0.4,0.2,0.8,0.3,1.3,0.5c0.2,0.5,0.3,1,0.6,1.4C7.7,40.9,7.3,40.7,7.1,40.4 M9.3,42.3
		c-0.3-0.2-0.5-0.6-0.8-1c0.4,0.1,0.8,0.2,1.2,0.3c0.2,0.4,0.4,0.8,0.6,1.1C9.9,42.7,9.5,42.5,9.3,42.3 M11.7,43.9
		c-0.3-0.2-0.6-0.5-0.9-0.8c0.4,0.1,0.9,0.1,1.4,0.1c0.2,0.4,0.5,0.7,0.7,1C12.4,44.2,12,44.1,11.7,43.9 M15.6,45.5
		c-0.4,0-0.8-0.1-1.1-0.2c-0.4-0.2-0.7-0.5-1.1-0.8c0.1,0,0.1,0,0.2,0c0.4,0,0.9,0,1.3-0.1c0.3,0.4,0.6,0.7,1,1
		C15.8,45.5,15.7,45.5,15.6,45.5 M18.2,46.4c-0.2,0-0.4,0-0.5-0.1c-0.4-0.1-0.8-0.4-1.2-0.7c0.4-0.1,0.9-0.1,1.3-0.2
		c0.4,0.3,0.8,0.7,1.2,1C18.6,46.4,18.4,46.4,18.2,46.4 M20.5,46.9c-0.4,0-0.7-0.2-1.2-0.5c0.4-0.1,0.8-0.2,1.2-0.4
		c0.4,0.2,0.7,0.5,1.1,0.7C21.3,46.9,20.9,47,20.5,46.9 M23.4,47.1c-0.3,0-0.7-0.1-1.2-0.3c0.4-0.2,0.9-0.4,1.3-0.6
		c0.4,0.2,0.8,0.4,1.2,0.5C24.2,46.9,23.8,47.1,23.4,47.1 M26.5,46.9c-0.1,0-0.2,0-0.2,0c-0.3,0-0.7-0.1-1.1-0.2
		c0.4-0.2,0.9-0.5,1.3-0.8c0.5,0.2,0.9,0.3,1.4,0.4C27.4,46.6,26.9,46.8,26.5,46.9 M29.8,46.2c-0.2,0.1-0.4,0.1-0.6,0.1
		c-0.2,0-0.5,0-0.8-0.1c0.3-0.2,0.7-0.6,1-0.9c0.5,0.1,1,0.2,1.5,0.2C30.5,45.9,30.1,46.1,29.8,46.2 M32.6,45.2
		c-0.3,0.1-0.7,0.2-1.2,0.2c0.3-0.3,0.6-0.6,0.9-1c0.3,0,0.7,0,1,0c0.1,0,0.2,0,0.3,0C33.2,44.8,32.9,45.1,32.6,45.2 M35.1,43.9
		c-0.3,0.2-0.6,0.2-1.1,0.3c0.3-0.3,0.6-0.7,0.8-1.2c0.5,0,0.9-0.1,1.3-0.1C35.8,43.4,35.5,43.7,35.1,43.9 M37.7,42.2
		c-0.3,0.2-0.7,0.4-1.3,0.5c0.2-0.4,0.5-0.9,0.7-1.3c0.5-0.1,1-0.2,1.4-0.3C38.3,41.5,38.1,41.9,37.7,42.2 M40.2,40
		c-0.3,0.3-0.7,0.5-1.2,0.7c0.2-0.4,0.3-0.8,0.5-1.3c0.5-0.2,1-0.3,1.4-0.6C40.7,39.3,40.4,39.7,40.2,40 M42.1,37.7
		c-0.2,0.3-0.6,0.5-1,0.8c0.1-0.4,0.2-0.8,0.3-1.3c0.4-0.2,0.8-0.4,1.1-0.6C42.5,37.1,42.3,37.5,42.1,37.7 M43.7,35.4
		c-0.2,0.3-0.5,0.6-0.8,0.9c0.1-0.4,0.1-0.9,0.1-1.4c0.4-0.2,0.7-0.5,1-0.7C44,34.6,43.9,35,43.7,35.4 M45.1,32.5
		c-0.2,0.4-0.5,0.7-0.8,1.1c0-0.5,0-1-0.1-1.5c0.4-0.3,0.7-0.6,1-1C45.3,31.7,45.3,32.2,45.1,32.5 M46.1,29.4
		c-0.1,0.4-0.4,0.8-0.7,1.2c-0.1-0.4-0.1-0.9-0.2-1.3c0.3-0.4,0.7-0.8,1-1.2C46.2,28.6,46.2,29.1,46.1,29.4 M46.7,26.5
		c0,0.4-0.2,0.7-0.5,1.2c-0.1-0.4-0.2-0.8-0.4-1.2c0.2-0.4,0.5-0.7,0.7-1.1C46.6,25.8,46.7,26.2,46.7,26.5"/>
</g>
</svg>
