<?xml version="1.0" encoding="UTF-8"?>
<svg xmlns="http://www.w3.org/2000/svg" version="1.1" viewBox="0 0 244 49">
  <defs>
    <style>
      .cls-1 {
        fill: #fff;
      }

      .cls-2 {
        fill: #359e34;
      }
    </style>
  </defs>
  <!-- Generator: Adobe Illustrator 28.7.1, SVG Export Plug-In . SVG Version: 1.2.0 Build 142)  -->
  <g>
    <g id="Calque_1">
      <polygon class="cls-1" points="65.8 22.3 65.8 29.4 64.7 29.4 64.7 22.3 62.1 22.3 62.1 21.3 68.6 21.3 68.6 22.3 65.8 22.3"/>
      <path class="cls-1" d="M80.8,29.4l-2.2-3.5c-.2,0-.6,0-1.2-.1v3.6h-1.1v-8.2c0,0,.3,0,.9-.1.6,0,1-.1,1.2-.1,2,0,3,.8,3,2.4s-.2,1-.5,1.4-.7.6-1.1.8l2.4,3.8h-1.4ZM77.4,22.3v2.7c.2,0,.6.1.8.1.7,0,1.2-.1,1.5-.3.3-.2.5-.6.5-1.2s-.2-.8-.5-1-.9-.3-1.6-.3c-.1-.1-.3-.1-.7,0"/>
      <path class="cls-1" d="M94,29.4l-.6-1.7h-3.1l-.6,1.7h-1.3l3.3-8.3h.3l3.1,8.3s-1.1,0-1.1,0ZM91.9,23.3l-1.3,3.6h2.5l-1.2-3.6Z"/>
      <rect class="cls-1" x="102.4" y="21.3" width="1.1" height="8.2"/>
      <polygon class="cls-1" points="114.1 22.3 114.1 29.4 113 29.4 113 22.3 110.4 22.3 110.4 21.3 116.9 21.3 116.9 22.3 114.1 22.3"/>
      <polygon class="cls-1" points="125.2 22.3 125.2 24.5 127.9 24.5 127.9 25.5 125.2 25.5 125.2 28.4 128.9 28.4 128.9 29.4 124 29.4 124 21.3 129 21.3 129 22.3 125.2 22.3"/>
      <path class="cls-1" d="M136.6,21.3h1.1v5.6c0,.5.2,1,.5,1.3s.7.5,1.3.5,1-.2,1.3-.5.5-.7.5-1.3v-5.5h1.1v5.7c0,.8-.2,1.5-.8,1.9-.6.5-1.3.7-2.1.7s-1.7-.2-2.1-.7c-.5-.5-.7-1.1-.7-2v-5.7h-.1Z"/>
      <path class="cls-1" d="M155.6,29.4l-2.2-3.5c-.2,0-.6,0-1.2-.1v3.6h-1.1v-8.2c.1,0,.3,0,.9-.1.6,0,1-.1,1.2-.1,2,0,3,.8,3,2.4s-.2,1-.5,1.4-.7.6-1.1.8l2.4,3.8h-1.4ZM152.2,22.3v2.7c.2,0,.6.1.8.1.7,0,1.2-.1,1.5-.3.3-.2.5-.6.5-1.2s-.2-.8-.5-1-.9-.3-1.6-.3c-.2-.1-.4-.1-.7,0"/>
      <polygon class="cls-1" points="179.6 29.7 178.7 24.4 176.9 29.8 176.6 29.8 174.7 24.4 173.8 29.7 172.7 29.7 174.3 21.5 174.7 21.5 176.7 27.5 178.5 21.5 179.1 21.5 180.8 29.7 179.6 29.7"/>
      <path class="cls-1" d="M193.2,29.7l-.6-1.7h-3.1l-.6,1.7h-1.3l3.3-8.3h.3l3.1,8.3h-1.1ZM191.1,23.5l-1.3,3.6h2.5l-1.2-3.6Z"/>
      <polygon class="cls-1" points="206.5 29.7 204.5 26.4 202.6 29.7 201.4 29.7 203.9 25.4 201.7 21.5 202.8 21.5 204.5 24.6 206.5 21.5 207.6 21.5 205 25.4 207.8 29.7 206.5 29.7"/>
      <rect class="cls-1" x="214.5" y="21.5" width="1.1" height="8.2"/>
      <polygon class="cls-1" points="230.5 29.7 229.5 24.4 227.7 29.8 227.4 29.8 225.6 24.4 224.6 29.7 223.5 29.7 225.1 21.5 225.6 21.5 227.5 27.5 229.4 21.5 229.8 21.5 231.6 29.7 230.5 29.7"/>
      <polygon class="cls-1" points="240.3 22.5 240.3 24.8 243 24.8 243 25.7 240.3 25.7 240.3 28.7 244 28.7 244 29.7 239.1 29.7 239.1 21.5 244.1 21.5 244.1 22.5 240.3 22.5"/>
      <g>
        <path class="cls-2" d="M29.2,10.9v26.7h-1.2V14.3l-6.6,18-6.3-11.7v16.9h-1.1V10.9h1.2l7.7,14,5.1-14h1.2ZM21.6,28.4l-6.4-11.9v1.7l6.1,11.2.3-1Z"/>
        <path class="cls-2" d="M32.3,10.9c-1.3,0-1.9,3.2-2.1,4.9-.2,3.5.8,7.2.8,10.4s-.2,3.9-.3,6.3c-.1,1.8-1,5.1.9,5.1s1-3.4.9-5c-.2-5.8-.4-11.4,0-17.6.2-1.4.4-4-.2-4.1"/>
        <path class="cls-1" d="M47,23.6c0-.5-.2-1-.5-1.6.2-.6.3-1.1.2-1.6s-.3-1-.7-1.5c0-.6.2-1.2,0-1.7,0-.4-.4-.9-.8-1.3,0-.6,0-1.1-.2-1.5s-.5-.8-.9-1.2c0-.6-.2-1.1-.4-1.4-.2-.4-.6-.8-1.2-1.1,0-.6-.3-1.1-.6-1.5s-.8-.7-1.4-1c-.2-.6-.5-1.2-.8-1.5s-.8-.6-1.4-.7c-.3-.5-.6-1-.9-1.2-.3-.2-.8-.4-1.4-.6-.3-.5-.7-.9-1-1.1-.4-.2-.9-.3-1.6-.4-.4-.5-.9-.9-1.3-1-.3-.1-.7-.2-1.1-.2h-.6c-.5-.4-1-.8-1.4-.9-.2,0-.4,0-.6,0-.3,0-.6,0-1,0C26.9.3,26.4,0,26,0c-.4-.1-.9.1-1.4.2-.6-.3-1-.4-1.5-.4S22.1,0,21.5.3C21,0,20.6,0,20.2,0h-.3c-.5.1-1,.3-1.5.7-.4-.1-.7-.1-1-.1s-.5,0-.7.1c-.4.1-.9.4-1.3.8h-.2c-.6,0-1,.1-1.4.2-.4.2-.8.5-1.2.9-.6,0-1.1.2-1.4.4-.4.2-.8.6-1.1,1.2-.3.3-.8.5-1.1.7-.4.3-.7.8-1,1.4-.6.2-1.2.5-1.5.9-.3.3-.5.7-.7,1.3-.5.3-1,.6-1.2.9-.3.4-.5.8-.6,1.4-.5.3-.9.7-1.1,1-.2.4-.3,1-.4,1.6-.5.4-.8.9-1,1.3-.2.5-.2,1-.2,1.7-.4.5-.8,1-.9,1.4,0,.4,0,1,0,1.5-.3.5-.6,1-.6,1.4C-.3,21.1-.2,21.6,0,22.1c-.2.5-.4,1-.4,1.4s.2,1,.5,1.6c0,.7-.2,1.2,0,1.7s.3,1,.7,1.5c-.1.6-.2,1.2,0,1.7.1.4.4.9.8,1.3,0,.6,0,1.1.2,1.5s.5.8.9,1.2c0,.6.2,1.1.4,1.4.2.4.6.8,1.2,1.1,0,.6.3,1.1.6,1.5.3.4.8.7,1.4,1,.2.6.5,1.2.8,1.5s.8.6,1.4.7c.3.5.6,1,.9,1.2.3.2.8.4,1.4.6.3.5.7.9,1,1.1.4.2.9.3,1.6.4.4.5.9.9,1.3,1,.3,0,.7.2,1.1.2h.6c.5.4,1,.8,1.4.9.2,0,.4,0,.6,0h0c.3,0,.6,0,1,0,.5.3,1,.6,1.4.6h.2c.4,0,.8,0,1.3-.2.5.2,1,.4,1.4.4s1-.2,1.6-.5c.5.2.9.3,1.3.3h.3c.5,0,1-.3,1.5-.7.4,0,.7,0,1,0s.5,0,.7,0c.4,0,.9-.4,1.3-.8h.2c.6,0,1,0,1.4-.2.4-.2.8-.5,1.2-.9.6,0,1.1-.2,1.4-.4.4-.2.8-.6,1.1-1.2.7,0,1.2-.3,1.5-.6.4-.3.7-.8,1-1.4.6-.2,1.2-.5,1.5-.8s.6-.8.7-1.4c.5-.3,1-.6,1.2-.9.2-.3.4-.8.6-1.4.5-.3.9-.7,1.1-1,.2-.4.3-1,.4-1.6.5-.4.8-.9,1-1.3.2-.5.2-1,.2-1.7.4-.5.8-1,.9-1.4,0-.4,0-1,0-1.5.3-.5.6-1,.6-1.4,0-.4,0-.9-.2-1.4-.2-.6,0-1.1,0-1.6M46.9,23.6c0,.3,0,.7-.3,1.2-.2-.4-.4-.9-.6-1.3.2-.4.4-.8.5-1.2.2.5.4,1,.4,1.3M44.1,33.8c-.3.3-.7.5-1,.8v-1.5c.3-.2.7-.5,1-.8v1.5M33.2,44.3h-.8c.3-.4.6-.8.9-1.2h1.3c-.3.4-.6.8-.9,1.2h-.5M31.1,45.4c-.5,0-1,0-1.5-.2.3-.3.6-.6.9-1,.5,0,1,.2,1.5.2-.3.4-.6.7-.9,1M2.8,32.6c.4.3.8.6,1.2.9v1.4c-.4-.3-.8-.6-1.2-.9v-1.4M2.8,13.5c.3-.3.7-.5,1-.8v1.5c-.3.2-.7.5-1,.8,0-.5,0-1,0-1.5M13.7,3h.8c-.3.4-.6.8-.9,1.2h-1.3c.3-.4.6-.8.9-1.2.1,0,.3,0,.5,0M15.8,1.9c.5,0,1,.1,1.5.2-.3.3-.6.6-.9,1-.5,0-1-.2-1.5-.2.3-.4.6-.7.9-1M44,14.7c-.4-.3-.8-.6-1.2-.9v-1.4c.4.3.8.6,1.2.9,0,.5,0,.9,0,1.4M44,26.3s.2.6.5,1.5c-.6.7-1,1.2-1,1.2h0c0,.1.2.7.3,1.5-.6.6-1.1.9-1.1.9h0c0,.1,0,.7,0,1.6-.7.5-1.2.8-1.2.8h0c0,0,0,.8,0,1.7-.8.4-1.5.7-1.5.7h0c0,0,0,.8-.3,1.6-.8.3-1.5.5-1.5.5h0c0,0-.2.7-.4,1.5-.8.2-1.4.3-1.4.3h0c0,0-.2.7-.6,1.4-.8,0-1.4,0-1.5,0h0c0,0-.4.7-.9,1.5-.9,0-1.6,0-1.6,0h-.1s-.4.5-1,1.2c-.9-.2-1.5-.3-1.5-.3h-.1s-.4.4-1,1c-.8-.2-1.3-.5-1.4-.5h-.2s-.5.4-1.2.8c-.8-.3-1.3-.6-1.3-.6h-.2s-.6.4-1.4.8c-.8-.5-1.4-.9-1.4-.9h-.1s-.6.2-1.5.5c-.7-.6-1.2-1-1.2-1h-.1s-.6.2-1.4.3c-.6-.6-.9-1.1-.9-1.1h-.1s-.6,0-1.4,0c-.5-.7-.8-1.2-.8-1.2h0c0,0,0,0,0,0-.2,0-.8,0-1.6,0-.4-.8-.7-1.5-.7-1.5h0c0,0-.1,0-.1,0,0,0-.7,0-1.5-.3-.3-.8-.5-1.5-.5-1.5h0q0,0,0,0s-.6-.2-1.4-.4c-.1-.9-.2-1.5-.2-1.5h0c0,0,0,0,0,0,0,0-.6-.2-1.3-.6,0-.8,0-1.4,0-1.5h0c0,0,0,0,0,0,0,0-.6-.4-1.4-.9,0-.9,0-1.6,0-1.6h0c0-.1-.5-.5-1.2-1.1.2-.9.3-1.5.3-1.5h0c0-.1-.4-.5-1-1.1.2-.8.5-1.3.5-1.4h0c0-.1-.4-.6-.8-1.3.3-.8.6-1.3.6-1.3h0v-.2s-.4-.6-.8-1.4c.5-.8.9-1.4.9-1.4h0v-.2s-.2-.6-.5-1.5c.6-.7,1-1.2,1-1.2h0c0-.1-.2-.7-.3-1.5.6-.6,1.1-.9,1.1-.9h0c0-.1,0-.7,0-1.6.7-.5,1.2-.8,1.2-.8h.2c0-.1,0-.8,0-1.7.8-.4,1.5-.7,1.5-.7h0c0,.1,0-.6.3-1.4.8-.3,1.5-.5,1.5-.5h.1c0-.1.2-.7.4-1.5.8-.2,1.4-.3,1.4-.3h.1c0,0,.2-.7.6-1.4.8,0,1.4,0,1.5,0h.1c0,0,.4-.7.9-1.5.9,0,1.6,0,1.6,0h.1s.4-.5,1-1.2c.8.3,1.5.5,1.5.5h0s.4-.4,1-1c.8.2,1.3.5,1.4.5h.1s.5-.4,1.2-.8c.8.3,1.3.6,1.3.6h.2s.6-.4,1.4-.8c.8.5,1.4.9,1.4.9h.1s.6-.2,1.5-.5c.7.6,1.2,1,1.2,1h.1s.6-.2,1.4-.3c.6.6.9,1.1.9,1.1h.1s.6,0,1.4,0c.5.7.8,1.2.8,1.2h0c0,0,.2,0,.2,0,.2,0,.8,0,1.6,0,.4.8.7,1.5.7,1.5h0c0,0,.7.2,1.5.4.3.8.5,1.5.5,1.5h0c0,.1,0,.1,0,.1,0,0,.6.2,1.4.4.2.8.3,1.4.3,1.4h0c0,.1,0,.1,0,.1,0,0,.6.2,1.3.6,0,.8,0,1.4,0,1.5h0c0-.1,0-.1,0-.1,0,0,.6.4,1.4.9,0,.9,0,1.6,0,1.6h0c0,.1.5.5,1.2,1.1-.2.9-.3,1.5-.3,1.5h0c0,.1.4.5,1,1.2-.2.8-.5,1.3-.5,1.4h0c0,.1.4.6.8,1.3-.3.8-.6,1.3-.6,1.3h0v.2s.4.6.8,1.4c-.6.8-1,1.3-1.1,1.4h0ZM44.4,23.4c0-.2.3-.6.6-1.2.2.4.5.8.8,1.3-.2.4-.4.8-.6,1.2-.5-.7-.7-1.2-.8-1.3M45.1,22c.2-.4.3-.8.5-1.2.3.4.6.9.8,1.3-.2.4-.3.8-.5,1.2-.3-.5-.6-.9-.8-1.3M44.9,21.8c-.3-.5-.6-.9-.7-1,0-.2.2-.6.4-1.2.3.3.6.7.8,1-.1.4-.3.8-.5,1.2M44.7,19.3c0-.4.3-.9.4-1.4.3.3.6.7.9,1,0,.5-.2.9-.4,1.4-.4-.3-.6-.7-.9-1M44.5,19.1c-.4-.5-.7-.8-.9-.9,0-.2.2-.7.3-1.4.3.3.6.6.9.9,0,.5,0,1-.3,1.4M44,16.6c0-.5.2-1,.2-1.5.3.3.7.6,1,.9,0,.5,0,1-.2,1.5-.4-.3-.7-.6-1-.9M43.8,16.4c-.5-.5-.9-.8-1.1-.9,0-.2,0-.7,0-1.5.4.2.8.6,1.1.9.1.6,0,1.1,0,1.5M42.7,13.7c-.6-.4-1.1-.7-1.2-.8,0-.2,0-.6,0-1.3.4.2.9.5,1.3.7v1.4M41.4,11.4c0-.4,0-.8-.2-1.3.5.2.9.5,1.3.7,0,.4,0,.8.2,1.3-.5-.3-.9-.5-1.3-.7M41.1,11.3c-.6-.3-1-.5-1.2-.6,0-.2,0-.6-.2-1.2.4.2.8.3,1.3.5,0,.4.1.9.1,1.3M39.7,9.3c0-.4-.2-.9-.4-1.4.4.2.9.3,1.3.5.2.4.2.9.3,1.4-.4-.2-.9-.4-1.2-.5M39.4,9.2c-.6-.2-1-.3-1.2-.4,0-.2-.2-.7-.4-1.3.4,0,.8.2,1.3.3.1.5.2.9.3,1.4M37.7,7.2c-.2-.4-.4-.9-.6-1.4.5.1.9.2,1.3.3.2.4.4.9.6,1.4-.5,0-.9-.2-1.3-.3M37.5,7.2c-.7,0-1.2-.2-1.4-.2,0-.2-.3-.7-.6-1.3.4,0,.9,0,1.4.2.2.4.4.9.6,1.3M35.4,5.4c-.2-.4-.4-.8-.7-1.2.6,0,1,0,1.4.2.2.3.5.7.6,1.2-.4,0-.9-.2-1.3-.2M35.1,5.4c-.7,0-1.2,0-1.4,0h0c0-.2-.3-.6-.7-1.1h1.6c.1.4.4.8.5,1.2M34.3,4.1h-1.5c-.2-.3-.5-.7-.8-1,.4,0,.8,0,1.2,0h.4c.3.3.5.7.7,1.1h0M32.6,4.1c-.6,0-1.1,0-1.3,0-.1,0-.4-.5-.8-1,.4,0,.9,0,1.3-.2.3.4.5.7.8,1.1M30.3,3.1c-.3-.3-.6-.7-1-1,.5-.1.9-.2,1.3-.2.3.3.7.7,1,1.1-.5,0-.9,0-1.3,0M30.1,3.1c-.6,0-1.1.2-1.2.2-.1,0-.5-.5-1-1,.4,0,.8-.2,1.2-.3.3.4.7.8,1,1.1M27.6,2.3c-.4-.3-.8-.6-1.2-.9.4-.2.8-.3,1.2-.4.4.3.8.6,1.2,1-.4,0-.8,0-1.2.3M27.4,2.4c-.6.2-1.2.4-1.3.5-.2,0-.6-.4-1.2-.8.4-.2.9-.4,1.4-.6.3.2.7.6,1.1.9M24.7,1.9c-.4-.2-.7-.5-1.2-.7.5-.2.9-.4,1.4-.6.3.2.7.4,1.1.7-.5.2-.9.4-1.3.6M24.5,2c-.6.3-1.1.6-1.3.7-.2-.1-.6-.3-1.2-.6.4-.2.8-.5,1.3-.8.4.2.8.4,1.2.7M21.8,2c-.4-.2-.8-.3-1.2-.5.4-.3.9-.6,1.3-.8.4.2.8.3,1.2.5-.5.3-.9.5-1.3.8M21.6,2.1c-.5.3-.9.6-1.1.7-.2,0-.6-.2-1.2-.4.3-.3.7-.6,1-.8.5.2.9.4,1.3.5M19.1,2.4c-.4,0-.9-.3-1.4-.4.3-.3.7-.6,1-.9.5.1.9.2,1.4.4-.3.3-.7.6-1,.9M18.9,2.5c-.5.4-.8.7-.9.9-.2,0-.7-.2-1.4-.3.3-.3.6-.6.9-.9.5,0,1,.2,1.4.3M16.2,3.2c-.5.5-.8.9-.9,1.1-.2,0-.7,0-1.5,0,.2-.4.6-.8.9-1.1.6,0,1.1,0,1.5,0M13,4.4h.5c-.4.6-.7,1.1-.8,1.2-.2,0-.6,0-1.3,0,.2-.4.5-.9.7-1.3.3,0,.6,0,.9,0M11.2,5.7c-.4,0-.8,0-1.3.2.2-.5.5-.9.7-1.3.4,0,.8,0,1.3-.2-.3.4-.5.9-.7,1.3M11,5.9c-.3.6-.5,1-.6,1.2-.2,0-.6,0-1.2.2.2-.4.3-.8.5-1.3.5,0,.9,0,1.3,0M9.1,7.4c-.5,0-.9.2-1.4.4.1-.5.3-.9.4-1.3.4-.2.9-.2,1.4-.3-.1.4-.3.8-.4,1.2M9,7.6c-.2.6-.3,1-.4,1.2-.2,0-.7.2-1.3.4,0-.4.2-.8.3-1.2.5-.2.9-.3,1.4-.4M7,9.3c-.4.2-.9.4-1.4.6,0-.4.2-.9.3-1.3.4-.2.9-.4,1.4-.6-.1.5-.2.9-.3,1.3M7,9.5c-.2.7-.2,1.2-.2,1.4-.2.1-.8.3-1.4.7,0-.5,0-.9.2-1.4.4-.3.9-.5,1.4-.7M5.2,11.7c-.4.2-.8.4-1.2.7,0-.5.1-1,.2-1.4.3-.2.7-.5,1.2-.6,0,.3-.2.8-.2,1.3M5.2,11.9c0,.7,0,1.3,0,1.5-.2.1-.6.3-1.1.7v-1.5c.4-.3.8-.5,1.2-.7M3.9,14.5c0,.6,0,1.1,0,1.3,0,.1-.5.4-1,.8,0-.4,0-.9-.2-1.3.4-.3.7-.6,1.1-.8M2.9,16.8c-.3.3-.7.6-1,1-.1-.5-.2-.9-.2-1.3.3-.3.7-.7,1.1-1-.1.4,0,.9,0,1.3M2.9,17c0,.6.2,1,.2,1.2,0,.1-.5.5-1,1-.1-.4-.2-.8-.3-1.2.4-.4.8-.7,1.1-1M2.1,19.4c-.3.4-.6.8-.9,1.2-.2-.4-.3-.8-.4-1.2.3-.4.6-.8,1-1.2,0,.4.1.9.3,1.2M2.1,19.7c.2.6.4,1.2.5,1.3,0,.2-.4.6-.8,1.2-.2-.4-.4-.9-.6-1.4.3-.4.6-.8.9-1.1M1.7,22.4c-.2.3-.5.7-.7,1.2-.2-.5-.4-.9-.6-1.4.2-.4.4-.8.7-1.2.2.5.4,1,.6,1.4M1.7,22.6c.3.6.6,1.1.7,1.3,0,.2-.3.6-.6,1.2-.2-.4-.5-.8-.8-1.3.3-.4.5-.8.7-1.2M1.8,25.3c-.2.4-.3.8-.5,1.2-.3-.4-.6-.9-.8-1.3.1-.4.3-.8.5-1.2.3.5.5.9.8,1.3M1.9,25.5c.3.5.6.9.7,1,0,.2-.2.6-.4,1.2-.3-.3-.6-.7-.8-1,.2-.4.3-.8.5-1.2M2.1,28c-.1.4-.3.9-.4,1.4-.3-.3-.6-.7-.9-1,.1-.5.2-.9.4-1.4.4.3.7.6.9,1M2.3,28.1c.4.5.7.8.9.9,0,.2-.2.7-.3,1.4-.3-.3-.6-.6-.9-.9.1-.5.2-.9.3-1.4M2.8,30.7c0,.5-.2,1-.2,1.5-.3-.3-.7-.6-1-.9,0-.5.1-1,.2-1.5.4.3.7.6,1,.9M3,30.8c.5.5.9.8,1.1.9,0,.2,0,.7,0,1.5-.4-.2-.8-.6-1.1-.9,0-.5,0-1,0-1.5M4.1,33.6c.6.4,1.1.7,1.2.8,0,.2,0,.6,0,1.3-.4-.2-.9-.5-1.3-.7,0-.5,0-1,0-1.4M5.5,35.9c0,.4,0,.8.2,1.3-.5-.2-.9-.5-1.3-.7,0-.4,0-.8-.2-1.3.4.2.9.5,1.3.7M5.7,36c.6.3,1,.5,1.2.6,0,.2,0,.6.2,1.2-.4-.2-.8-.3-1.3-.5,0-.5,0-.9,0-1.3M7.2,38c0,.4.2.9.4,1.4-.4,0-.9-.3-1.3-.5-.2-.4-.3-.9-.4-1.4.5.2.9.4,1.3.5M7.4,38.1c.6.2,1,.3,1.2.4.1.2.2.7.4,1.3-.4,0-.8-.2-1.3-.3,0-.5-.2-1-.3-1.4M9.1,40c.2.4.4.9.6,1.4-.4,0-.9-.2-1.3-.3-.2-.4-.4-.9-.6-1.4.5,0,.9.2,1.3.3M9.3,40.1c.7.2,1.2.2,1.4.2.1.2.3.7.6,1.3-.4,0-.9,0-1.4-.2-.2-.4-.4-.9-.6-1.3M11.4,41.9c.2.4.4.8.7,1.2-.6,0-1,0-1.4-.2-.2-.3-.5-.7-.6-1.2.4,0,.9,0,1.3.2M11.7,41.9c.7,0,1.2,0,1.4,0h0c.1.2.3.6.7,1.1h-1.6c0-.4-.3-.8-.5-1.2M12.5,43.2h1.5c.2.3.5.7.8,1-.4,0-.8,0-1.2,0h-.4c-.2-.3-.5-.7-.7-1.1h0M14.3,43.2c.6,0,1.1,0,1.3,0,.1,0,.4.5.8,1-.4,0-.9,0-1.3.2-.3-.4-.6-.8-.8-1.1M16.5,44.2c.3.3.6.7,1,1-.5,0-.9.2-1.3.2-.3-.3-.7-.7-1-1.1.5,0,.9,0,1.3-.1M16.8,44.2c.6,0,1.1-.2,1.2-.2.1,0,.5.5,1,1-.4,0-.8.2-1.2.3-.4-.5-.7-.8-1-1.1M19.2,45c.4.3.8.6,1.2.9-.4.2-.8.3-1.2.4-.4-.3-.8-.6-1.2-1,.4-.1.8-.2,1.2-.3M19.4,44.9c.6-.2,1.2-.4,1.3-.5.2,0,.6.4,1.2.8-.4.2-.9.4-1.4.6-.3-.3-.7-.6-1.1-.9M22.2,45.4c.3.2.7.5,1.2.7-.5.2-.9.4-1.4.6-.4-.2-.8-.4-1.2-.7.5-.2,1-.4,1.4-.6M22.4,45.3c.6-.3,1.1-.6,1.3-.7.2,0,.6.3,1.2.6-.4.2-.8.5-1.3.8-.5-.3-.9-.5-1.2-.7M25.1,45.3c.4.2.8.3,1.2.5-.4.3-.9.6-1.3.8-.4-.2-.8-.3-1.2-.5.4-.3.9-.6,1.3-.8M25.3,45.1c.5-.3.9-.6,1-.7.2,0,.6.2,1.2.4-.3.3-.7.6-1,.8-.4,0-.9-.3-1.2-.5M27.7,44.9c.4,0,.9.3,1.4.4-.3.3-.7.6-1,.9-.5,0-.9-.2-1.4-.4.4-.4.7-.6,1-.9M27.9,44.7c.5-.4.8-.7.9-.9.2,0,.7.2,1.4.3-.3.3-.6.6-.9.9-.5,0-1,0-1.4-.3M30.6,44.1c.5-.5.8-.9.9-1.1.2,0,.7,0,1.5,0-.2.4-.6.8-.9,1.1-.5,0-1,0-1.5,0M33.8,42.9h-.5c.4-.6.7-1.1.8-1.2.2,0,.6,0,1.3,0-.2.4-.4.9-.7,1.4-.3,0-.5,0-.9,0M35.7,41.6c.4,0,.8,0,1.3-.2-.2.5-.5.9-.7,1.4-.4,0-.8,0-1.3.2.2-.6.5-1,.7-1.4M35.8,41.4c.3-.6.5-1,.6-1.2.2,0,.6,0,1.2-.2-.2.4-.3.8-.5,1.3-.5,0-.9,0-1.3.1M37.8,39.9c.4,0,.9-.2,1.4-.4-.2.4-.3.9-.5,1.3-.4.2-.9.2-1.4.3.2-.4.4-.8.5-1.2M37.9,39.6c.2-.6.3-1,.4-1.2.2,0,.7-.2,1.3-.4,0,.4-.2.8-.3,1.3-.5.1-1,.3-1.4.3M39.8,38c.4-.2.9-.4,1.4-.6,0,.4-.2.9-.3,1.3-.4.2-.9.4-1.4.6,0-.5.2-.9.3-1.3M39.9,37.7c.2-.7.2-1.2.2-1.4.2,0,.7-.3,1.3-.6,0,.4,0,.9-.2,1.4-.4.2-.9.5-1.3.6M41.6,35.6c.4-.2.8-.4,1.2-.7,0,.5,0,1-.2,1.4-.3.2-.7.5-1.2.6.2-.4.2-.8.2-1.3M41.7,35.4c0-.7,0-1.3,0-1.5.2,0,.6-.3,1.1-.7v1.5c-.5.3-.9.5-1.2.7M43,32.8c0-.6,0-1.1,0-1.3,0-.1.5-.4,1-.8,0,.4,0,.9.2,1.3-.5.3-.8.6-1.1.8M44,30.5c.3-.3.7-.6,1-1,0,.5.2.9.2,1.3-.3.3-.7.7-1.1,1,0-.4,0-.9-.1-1.3M43.9,30.3c0-.6-.2-1.1-.2-1.2,0-.1.5-.5,1-1,0,.4.2.8.3,1.2-.4.3-.7.7-1.1,1M44.8,27.8c.3-.4.6-.8.9-1.2.2.4.3.8.4,1.2-.3.4-.6.8-1,1.2-.1-.4-.2-.8-.3-1.2M44.7,27.6c-.2-.6-.4-1.2-.5-1.3,0-.2.4-.6.8-1.2.2.4.4.9.6,1.4-.3.4-.6.8-.9,1.1M45.2,24.9c.2-.3.5-.7.7-1.2.2.5.4.9.6,1.4-.2.4-.4.8-.7,1.2-.2-.6-.4-1-.6-1.4M46.6,20.5c0,.4,0,.8-.2,1.3-.2-.4-.5-.9-.8-1.3.2-.5.3-.9.4-1.4.4.5.6,1,.6,1.4M46,17.3c0,.4,0,.9,0,1.4-.2-.3-.6-.7-.9-1,0-.5.2-1,.2-1.5.4.4.6.7.7,1.1M45,14.5c.2.3.2.8.2,1.2-.3-.3-.6-.6-1-.9,0-.5,0-.9,0-1.3.4.3.7.7.8,1M43.7,11.9c.2.3.3.7.3,1.1-.3-.3-.7-.6-1.2-.8,0-.4,0-.9,0-1.3.5.4.8.7,1,1M41.9,9.3c.2.3.4.7.5,1.3-.4-.2-.9-.5-1.3-.7,0-.5-.2-1-.3-1.4.5.2.9.5,1.1.8M39.8,6.8c.3.3.5.7.7,1.2-.4-.2-.8-.3-1.3-.5-.2-.5-.3-1-.6-1.4.5.3.9.5,1.2.7M37.5,4.9c.3.2.5.6.8,1-.4,0-.8-.2-1.2-.3-.2-.4-.4-.8-.6-1.1.4,0,.8.2,1,.4M35.1,3.3c.3.2.6.5.9.8-.4,0-.9,0-1.4,0-.2-.4-.5-.7-.7-1,.5,0,.9.2,1.2.3M31.2,1.8c.4,0,.8.1,1.1.2.4.2.7.5,1.1.8h-.2c-.4,0-.9,0-1.3,0-.3-.4-.6-.7-1-1.1.1,0,.2,0,.3,0M28.7.9c.2,0,.4,0,.5.1.4,0,.8.3,1.2.6-.4.1-.9.1-1.3.2-.3-.3-.7-.6-1.1-.8.2-.1.4-.1.7-.1M26.3.4c.3,0,.7.2,1.1.5-.4,0-.8.1-1.2.3-.4-.2-.7-.5-1.1-.7.5-.1.9-.2,1.2-.1M23.4.2c.3,0,.8.1,1.2.3-.4.2-.9.4-1.3.6-.4-.2-.8-.4-1.2-.5.5-.3.9-.4,1.3-.4M20.3.4h.2c.3,0,.7,0,1.1.2-.4.2-.9.5-1.3.8-.4-.2-.9-.3-1.3-.4.4-.3.9-.5,1.3-.6M17.1,1.1c.1-.1.4-.1.6-.1s.5,0,.8.1c-.3.2-.7.6-1,.9-.5-.1-1-.2-1.5-.2.4-.4.7-.6,1.1-.7M14.3,2.1c.3-.1.7-.2,1.2-.2-.3.3-.6.6-.9,1-.3,0-.6,0-1,0h-.3c.3-.3.7-.6,1-.7M11.7,3.3c.3,0,.6-.2,1.1-.3-.3.3-.6.7-.8,1.2-.5,0-.9,0-1.3,0,.3-.4.7-.8,1-1M9.1,5.1c.3-.2.7-.4,1.3-.5-.3.4-.5.9-.7,1.3-.5,0-1,.2-1.4.4.2-.6.5-1,.8-1.2M6.6,7.3c.3-.3.8-.5,1.3-.7-.2.4-.4.8-.5,1.2-.5.2-1,.4-1.4.6.2-.5.4-.9.6-1.1M4.7,9.5c.2-.3.6-.5,1-.8-.2.4-.3.9-.3,1.3-.4.2-.8.4-1.1.6,0-.4.2-.8.4-1.1M3.1,11.9c.2-.3.5-.6.9-.9,0,.5,0,.9,0,1.4-.4.2-.7.5-1,.7-.1-.4,0-.9.2-1.2M1.7,14.7c.2-.4.5-.7.8-1.1,0,.5,0,1,0,1.5-.4.3-.7.6-1,1,0-.5,0-1,.1-1.4M.7,17.9c.1-.4.4-.8.7-1.2.1.4.1.9.2,1.3-.3.4-.7.8-1,1.2,0-.6,0-1,0-1.3M.2,20.8c0-.4.2-.7.5-1.2,0,.4.1.8.3,1.2-.2.4-.5.7-.7,1.1-.1-.4-.2-.8-.1-1.1M0,23.6c0-.3.1-.7.3-1.2.2.4.4.9.6,1.3-.2.4-.4.8-.5,1.2-.3-.4-.4-.9-.4-1.3M.2,26.8c-.1-.4,0-.8.2-1.3.2.4.5.9.8,1.3-.2.5-.3.9-.4,1.4-.3-.6-.6-1-.6-1.4M.9,30c-.1-.4-.1-.9,0-1.4.2.3.6.7.9,1-.1.5-.2,1-.2,1.5-.4-.4-.6-.8-.7-1.1M1.8,32.8c-.2-.3-.2-.8-.2-1.2.3.3.6.6,1,.9,0,.5,0,.9,0,1.3-.4-.4-.6-.7-.8-1M3.1,35.4c-.2-.3-.3-.7-.3-1.1.4.2.8.5,1.2.7,0,.4,0,.9,0,1.3-.4-.3-.8-.6-1-.9M4.9,38c-.2-.3-.4-.7-.5-1.3.4.2.9.5,1.3.7,0,.5.2,1,.3,1.4-.5-.3-.9-.5-1.1-.8M7.1,40.4c-.3-.3-.5-.7-.7-1.2.4.2.8.3,1.3.5.2.5.3,1,.6,1.4-.6-.2-1-.4-1.2-.7M9.3,42.3c-.3-.2-.5-.6-.8-1,.4,0,.8.2,1.2.3.2.4.4.8.6,1.1-.4,0-.8-.2-1-.4M11.7,43.9c-.3-.2-.6-.5-.9-.8.4,0,.9,0,1.4,0,.2.4.5.7.7,1-.5,0-.9-.1-1.2-.3M15.6,45.5c-.4,0-.8,0-1.1-.2-.4-.2-.7-.5-1.1-.8h.2c.4,0,.9,0,1.3,0,.3.4.6.7,1,1,0,0-.2,0-.3,0M18.2,46.4c-.2,0-.4,0-.5,0-.4,0-.8-.4-1.2-.7.4,0,.9,0,1.3-.2.4.3.8.7,1.2,1h-.8M20.5,46.9c-.4,0-.7-.2-1.2-.5.4,0,.8-.2,1.2-.4.4.2.7.5,1.1.7-.3.2-.7.3-1.1.2M23.4,47.1c-.3,0-.7,0-1.2-.3.4-.2.9-.4,1.3-.6.4.2.8.4,1.2.5-.5.2-.9.4-1.3.4M26.5,46.9h-.2c-.3,0-.7,0-1.1-.2.4-.2.9-.5,1.3-.8.5.2.9.3,1.4.4-.5.3-1,.5-1.4.6M29.8,46.2c-.2,0-.4,0-.6,0s-.5,0-.8,0c.3-.2.7-.6,1-.9.5,0,1,.2,1.5.2-.4.4-.8.6-1.1.7M32.6,45.2c-.3,0-.7.2-1.2.2.3-.3.6-.6.9-1h1.3c-.4.4-.7.7-1,.8M35.1,43.9c-.3.2-.6.2-1.1.3.3-.3.6-.7.8-1.2.5,0,.9,0,1.3,0-.3.5-.6.8-1,1M37.7,42.2c-.3.2-.7.4-1.3.5.2-.4.5-.9.7-1.3.5,0,1-.2,1.4-.3-.2.4-.4.8-.8,1.1M40.2,40c-.3.3-.7.5-1.2.7.2-.4.3-.8.5-1.3.5-.2,1-.3,1.4-.6-.2.5-.5.9-.7,1.2M42.1,37.7c-.2.3-.6.5-1,.8,0-.4.2-.8.3-1.3.4-.2.8-.4,1.1-.6,0,.5-.2.9-.4,1.1M43.7,35.4c-.2.3-.5.6-.8.9,0-.4,0-.9,0-1.4.4-.2.7-.5,1-.7,0,.4,0,.8-.3,1.2M45.1,32.5c-.2.4-.5.7-.8,1.1,0-.5,0-1,0-1.5.4-.3.7-.6,1-1,0,.6,0,1.1-.1,1.4M46.1,29.4c0,.4-.4.8-.7,1.2,0-.4,0-.9-.2-1.3.3-.4.7-.8,1-1.2,0,.5,0,1,0,1.3M46.7,26.5c0,.4-.2.7-.5,1.2,0-.4-.2-.8-.4-1.2.2-.4.5-.7.7-1.1,0,.4.2.8.2,1.1"/>
      </g>
    </g>
  </g>
</svg>